<svg width="18" height="18" viewBox="0 0 18 18" fill="none" xmlns="http://www.w3.org/2000/svg">
<path fill-rule="evenodd" clip-rule="evenodd" d="M7.92254 2.0891C8.24796 1.76365 8.24796 1.23602 7.92254 0.910579C7.59713 0.585146 7.06948 0.585146 6.74403 0.910579L5.07737 2.57725C4.75193 2.90269 4.75193 3.43032 5.07737 3.75576C5.40281 4.0812 5.93044 4.0812 6.25588 3.75576L7.92254 2.0891ZM1.49996 5.6665C1.03973 5.6665 0.666626 6.0396 0.666626 6.49984C0.666626 6.96007 1.03973 7.33317 1.49996 7.33317H16.5C16.9602 7.33317 17.3333 6.96007 17.3333 6.49984C17.3333 6.0396 16.9602 5.6665 16.5 5.6665H1.49996ZM2.51643 8.99984C1.99055 8.99984 1.59614 9.48092 1.69928 9.99659L2.76465 15.3234C2.99836 16.492 4.0244 17.3332 5.2161 17.3332H12.7837C13.9755 17.3332 15.0015 16.492 15.2352 15.3234L16.3005 9.99659C16.4037 9.48092 16.0093 8.99984 15.4835 8.99984H2.51643ZM10.6666 10.6665C10.2064 10.6665 9.83329 11.0396 9.83329 11.4998V14.8332C9.83329 15.2934 10.2064 15.6665 10.6666 15.6665C11.1269 15.6665 11.5 15.2934 11.5 14.8332V11.4998C11.5 11.0396 11.1269 10.6665 10.6666 10.6665ZM6.49995 11.4998C6.49995 11.0396 6.87304 10.6665 7.33328 10.6665C7.79354 10.6665 8.16663 11.0396 8.16663 11.4998V14.8332C8.16663 15.2934 7.79354 15.6665 7.33328 15.6665C6.87304 15.6665 6.49995 15.2934 6.49995 14.8332V11.4998ZM10.0774 0.910579C9.75196 1.23602 9.75196 1.76365 10.0774 2.0891L11.744 3.75576C12.0695 4.0812 12.5971 4.0812 12.9225 3.75576C13.248 3.43032 13.248 2.90269 12.9225 2.57725L11.2559 0.910579C10.9305 0.585146 10.4028 0.585146 10.0774 0.910579Z" fill="white"/>
</svg>
