<svg width="20" height="14" viewBox="0 0 20 14" fill="none" xmlns="http://www.w3.org/2000/svg">
<path fill-rule="evenodd" clip-rule="evenodd" d="M18.6186 9.0785C17.0617 11.0349 14.1889 13.6668 10.0001 13.6668C5.81132 13.6668 2.93848 11.0349 1.38158 9.0785C0.401617 7.84708 0.401617 6.15325 1.38158 4.92183C2.93848 2.96538 5.81132 0.333496 10.0001 0.333496C14.1889 0.333496 17.0617 2.96538 18.6186 4.92183C19.5985 6.15325 19.5985 7.84708 18.6186 9.0785ZM13.3334 7.00016C13.3334 8.84108 11.841 10.3335 10 10.3335C8.15913 10.3335 6.66675 8.84108 6.66675 7.00016C6.66675 5.15921 8.15913 3.66683 10 3.66683C11.841 3.66683 13.3334 5.15921 13.3334 7.00016ZM8.33338 7.00016C8.33338 6.9765 8.33388 6.953 8.33488 6.92958C8.46479 6.97525 8.60446 7.00016 8.75004 7.00016C8.85904 7.00016 8.96479 6.98625 9.06554 6.96C9.50238 6.84641 9.84629 6.5025 9.95988 6.06566C9.98612 5.96491 10 5.85916 10 5.75016C10 5.60458 9.97513 5.46491 9.92946 5.335C9.95288 5.334 9.97638 5.3335 10 5.3335C10.4227 5.3335 10.8086 5.49083 11.1025 5.75016C11.3181 5.9405 11.4842 6.18583 11.5786 6.46425C11.6357 6.63241 11.6667 6.81266 11.6667 7.00016C11.6667 7.92066 10.9205 8.66683 10 8.66683C9.81254 8.66683 9.63229 8.63583 9.46413 8.57875C9.18571 8.48433 8.94038 8.31825 8.75004 8.10258C8.49071 7.80875 8.33338 7.42283 8.33338 7.00016Z" fill="white"/>
</svg>
