<svg width="30" height="34" viewBox="0 0 30 34" fill="none" xmlns="http://www.w3.org/2000/svg">
<path fill-rule="evenodd" clip-rule="evenodd" d="M0.351562 14.7993C0.351562 6.72171 6.9224 0.150879 15 0.150879C23.0776 0.150879 29.6484 6.72171 29.6484 14.7993V14.8242C29.0665 14.3838 27.9094 14.0614 27.1667 13.917C26.7102 7.32868 21.7022 2.65088 15 2.65088C8.29779 2.65088 3.47311 7.32868 3.01667 13.9171C2.27383 14.0614 0.933398 14.3838 0.351562 14.8243V14.7993ZM19.8828 16.7524C19.8828 15.1369 21.197 13.8228 22.8125 13.8228C24.428 13.8228 25.7422 15.1369 25.7422 16.7524V24.6952V26.6483C25.7422 29.3405 23.5516 31.5311 20.8594 31.5311H17.7498C17.3453 32.6653 16.2715 33.4842 15 33.4842C13.3845 33.4842 12.0703 32.17 12.0703 30.5545C12.0703 28.939 13.3845 27.6248 15 27.6248C16.2715 27.6248 17.3453 28.4437 17.7498 29.578H20.8594C22.1813 29.578 23.2883 28.6926 23.6518 27.4876C23.3842 27.5683 23.1061 27.6248 22.8125 27.6248C21.197 27.6248 19.8828 26.3106 19.8828 24.6952V16.7524ZM7.1875 13.8228C5.57201 13.8228 4.25781 15.1369 4.25781 16.7524V24.6952C4.25781 26.3106 5.57201 27.6248 7.1875 27.6248C8.80299 27.6248 10.1172 26.3106 10.1172 24.6952V16.7524C10.1172 15.1369 8.80299 13.8228 7.1875 13.8228ZM2.94124 16.7524C2.94124 16.4707 2.99053 16.1986 3.05156 15.9299C1.49102 16.3103 0.351562 17.4035 0.351562 18.7056V22.742C0.351562 24.044 1.49102 25.1373 3.05156 25.5177C2.99053 25.249 2.94124 24.9769 2.94124 24.6951V16.7524ZM27.1167 15.9299C27.1777 16.1986 27.227 16.4707 27.227 16.7524V24.6951C27.227 24.9769 27.1777 25.249 27.1167 25.5177C28.6772 25.1373 29.8167 24.044 29.8167 22.742V18.7056C29.8167 17.4035 28.6772 16.3103 27.1167 15.9299Z" fill="#36C5F0"/>
</svg>
