<svg width="34" height="23" viewBox="0 0 34 23" fill="none" xmlns="http://www.w3.org/2000/svg">
<path fill-rule="evenodd" clip-rule="evenodd" d="M4.50004 0.747559C2.19886 0.747559 0.333374 2.61304 0.333374 4.91423V5.60867C0.333374 5.9922 0.645843 6.30767 1.02644 6.26031C3.54055 5.94743 5.53325 3.95474 5.84612 1.44063C5.89349 1.06003 5.57801 0.747559 5.19449 0.747559H4.50004ZM9.36115 0.747559C8.97762 0.747559 8.66972 1.05956 8.63821 1.44179C8.30429 5.49043 5.07625 8.71847 1.02761 9.05239C0.645377 9.08395 0.333374 9.39186 0.333374 9.77534V13.942C0.333374 14.3255 0.645377 14.6334 1.02761 14.6649C5.07625 14.9988 8.30429 18.2269 8.63821 22.2756C8.66972 22.6578 8.97762 22.9698 9.36115 22.9698H24.6389C25.0224 22.9698 25.3303 22.6578 25.3618 22.2756C25.6957 18.2269 28.9238 14.9988 32.9725 14.6649C33.3548 14.6334 33.6667 14.3255 33.6667 13.942V9.77534C33.6667 9.39186 33.3548 9.08395 32.9725 9.05239C28.9238 8.71847 25.6957 5.49043 25.3618 1.44179C25.3303 1.05956 25.0224 0.747559 24.6389 0.747559H9.36115ZM17 16.0253C19.3013 16.0253 21.1667 14.1599 21.1667 11.8587C21.1667 9.55742 19.3013 7.692 17 7.692C14.6988 7.692 12.8334 9.55742 12.8334 11.8587C12.8334 14.1599 14.6988 16.0253 17 16.0253ZM33.6667 5.60867V4.91423C33.6667 2.61304 31.8013 0.747559 29.5 0.747559H28.8056C28.4221 0.747559 28.1066 1.06003 28.1539 1.44063C28.4668 3.95474 30.4595 5.94743 32.9737 6.26031C33.3542 6.30767 33.6667 5.9922 33.6667 5.60867ZM33.6667 18.1087C33.6667 17.7252 33.3542 17.4096 32.9737 17.457C30.4595 17.7699 28.4668 19.7626 28.1539 22.2767C28.1066 22.6573 28.4221 22.9698 28.8056 22.9698H29.5C31.8013 22.9698 33.6667 21.1044 33.6667 18.8031V18.1087ZM0.333374 18.1087V18.8031C0.333374 21.1044 2.19886 22.9698 4.50004 22.9698H5.19449C5.57801 22.9698 5.89349 22.6573 5.84612 22.2767C5.53325 19.7626 3.54055 17.7699 1.02644 17.457C0.645843 17.4096 0.333374 17.7252 0.333374 18.1087Z" fill="#FF9637"/>
</svg>
