<svg width="32" height="26" viewBox="0 0 32 26" fill="none" xmlns="http://www.w3.org/2000/svg">
<path fill-rule="evenodd" clip-rule="evenodd" d="M4.88883 0.469238C2.58765 0.469238 0.722168 2.33472 0.722168 4.63591V7.41368H31.2777V4.63591C31.2777 2.33472 29.4123 0.469238 27.1111 0.469238H4.88883ZM31.2777 10.1915H0.722168V21.3026C0.722168 23.6038 2.58765 25.4692 4.88883 25.4692H27.1111C29.4123 25.4692 31.2777 23.6038 31.2777 21.3026V10.1915ZM10.4444 17.8304C10.4444 18.9809 9.51165 19.9137 8.36106 19.9137C7.21046 19.9137 6.27772 18.9809 6.27772 17.8304C6.27772 16.6798 7.21046 15.747 8.36106 15.747C9.51165 15.747 10.4444 16.6798 10.4444 17.8304ZM15.3055 19.9137C16.4561 19.9137 17.3888 18.9809 17.3888 17.8304C17.3888 16.6798 16.4561 15.747 15.3055 15.747C14.1549 15.747 13.2222 16.6798 13.2222 17.8304C13.2222 18.9809 14.1549 19.9137 15.3055 19.9137Z" fill="#F7336F"/>
</svg>
