<svg width="10" height="9" viewBox="0 0 10 9" fill="none" xmlns="http://www.w3.org/2000/svg">
<path fill-rule="evenodd" clip-rule="evenodd" d="M4.61747 0.303336C4.76222 -0.0321016 5.23784 -0.0321016 5.38259 0.303336L6.29092 2.40829C6.35222 2.55032 6.48717 2.64671 6.64138 2.65863L8.97084 2.83863C9.34459 2.86751 9.49309 3.33668 9.20401 3.57534L7.45217 5.02172C7.32863 5.12376 7.27451 5.28759 7.31301 5.44314L7.85213 7.62159C7.9408 7.97984 7.55434 8.26801 7.2363 8.08076L5.21138 6.88868C5.08092 6.81189 4.91909 6.81189 4.78863 6.88868L2.76374 8.08076C2.4457 8.26801 2.05923 7.97984 2.14789 7.62159L2.68703 5.44314C2.72552 5.28759 2.67141 5.12376 2.54785 5.02172L0.79602 3.57534C0.506953 3.33668 0.655453 2.86751 1.0292 2.83863L3.35864 2.65863C3.51287 2.64671 3.64781 2.55032 3.7091 2.40829L4.61747 0.303336Z" fill="#FFC640"/>
</svg>
<svg  viewBox="0 0 10 9" fill="red" xmlns="http://www.w3.org/2000/svg">
<path fill-rule="evenodd" clip-rule="evenodd" d="M 50 300 Q 150 50 300 300 Q 450 550 600 300 " fill="#FFC640"/>
</svg>
