<svg width="34" height="21" viewBox="0 0 34 21" fill="none" xmlns="http://www.w3.org/2000/svg">
<path fill-rule="evenodd" clip-rule="evenodd" d="M3.11115 0.955078H14.2223C15.7564 0.955078 17 2.19952 17 3.73365V16.2312C17 16.9983 16.3782 17.6217 15.6112 17.6217H10.0556C10.0556 19.1559 8.81194 20.3995 7.27782 20.3995C5.74369 20.3995 4.50004 19.1559 4.50004 17.6217H3.11115C1.57703 17.6217 0.333374 16.3781 0.333374 14.844V3.73286C0.333374 2.19873 1.57703 0.955078 3.11115 0.955078ZM19.7778 16.2329V6.51063C19.7778 5.74358 20.3996 5.12175 21.1667 5.12175H25.8168C26.4052 5.12175 26.9784 5.30858 27.4538 5.65532L32.5259 9.35494C33.2428 9.87786 33.6667 10.7119 33.6667 11.5991V16.2329C33.6667 16.9999 33.0449 17.6217 32.2778 17.6217H29.5C29.5 19.1559 28.2564 20.3995 26.7223 20.3995C25.1881 20.3995 23.9445 19.1559 23.9445 17.6217L21.1667 17.6217C20.3996 17.6217 19.7778 16.9999 19.7778 16.2329Z" fill="#7571FF"/>
</svg>
